<?xml version="1.0" encoding="utf-8"?>
<!-- Generator: Adobe Illustrator 17.0.0, SVG Export Plug-In . SVG Version: 6.00 Build 0)  -->
<!DOCTYPE svg PUBLIC "-//W3C//DTD SVG 1.1//EN" "http://www.w3.org/Graphics/SVG/1.1/DTD/svg11.dtd">
<svg version="1.1" id="Layer_1" xmlns="http://www.w3.org/2000/svg" xmlns:xlink="http://www.w3.org/1999/xlink" x="0px" y="0px"
	 width="400px" height="400px" viewBox="0 0 400 400" enable-background="new 0 0 400 400" xml:space="preserve">
<g>
	<g>
		<path fill="#00B3C3" d="M132.701,105.691V83.91c0-11.15-9.039-20.19-20.19-20.19s-20.19,9.039-20.19,20.19v21.782
			C78.339,113,68.768,127.638,68.768,144.479s9.571,31.479,23.555,38.787V316.09c0,11.15,9.039,20.19,20.19,20.19
			s20.19-9.039,20.19-20.19V183.266c13.983-7.308,23.555-21.947,23.555-38.787S146.684,113,132.701,105.691z M129.336,144.479
			c0,9.292-7.533,16.825-16.825,16.825s-16.825-7.533-16.825-16.825s7.533-16.825,16.825-16.825S129.336,135.187,129.336,144.479z"
			/>
		<path fill="#00B3C3" d="M220.19,208.658V83.91c0-11.15-9.039-20.19-20.19-20.19s-20.19,9.039-20.19,20.19v124.749
			c-13.983,7.308-23.555,21.947-23.555,38.787s9.572,31.479,23.555,38.787v29.857c0,11.15,9.039,20.19,20.19,20.19
			s20.19-9.039,20.19-20.19v-29.857c13.983-7.308,23.555-21.947,23.555-38.787S234.173,215.967,220.19,208.658z M216.825,247.446
			c0,9.292-7.533,16.825-16.825,16.825c-9.292,0-16.825-7.533-16.825-16.825c0-9.292,7.533-16.825,16.825-16.825
			C209.292,230.621,216.825,238.154,216.825,247.446z"/>
		<path fill="#00B3C3" d="M307.678,133.284V83.91c0-11.15-9.039-20.19-20.19-20.19c-11.15,0-20.19,9.039-20.19,20.19v49.374
			c-13.983,7.308-23.555,21.947-23.555,38.787s9.571,31.479,23.555,38.787V316.09c0,11.15,9.039,20.19,20.19,20.19
			c11.15,0,20.19-9.039,20.19-20.19V210.858c13.983-7.308,23.555-21.947,23.555-38.787S321.661,140.592,307.678,133.284z
			 M304.313,172.071c0,9.292-7.533,16.825-16.825,16.825s-16.825-7.533-16.825-16.825c0-9.292,7.533-16.825,16.825-16.825
			S304.313,162.779,304.313,172.071z"/>
	</g>
</g>
</svg>
