<?xml version="1.0" encoding="utf-8"?>
<!-- Generator: Adobe Illustrator 17.0.0, SVG Export Plug-In . SVG Version: 6.00 Build 0)  -->
<!DOCTYPE svg PUBLIC "-//W3C//DTD SVG 1.1//EN" "http://www.w3.org/Graphics/SVG/1.1/DTD/svg11.dtd">
<svg version="1.1" id="Layer_1" xmlns="http://www.w3.org/2000/svg" xmlns:xlink="http://www.w3.org/1999/xlink" x="0px" y="0px"
	 width="400px" height="400px" viewBox="0 0 400 400" enable-background="new 0 0 400 400" xml:space="preserve">
<g>
	<path fill="#00B3C3" d="M321.104,69.962c-5.233-5.233-13.716-5.233-18.949,0l-56.419,56.419
		c-14.502-4.393-29.843-6.751-45.738-6.751c-62.312,0-116.338,36.291-142.877,89.298c11.484,22.914,28.093,42.702,48.275,57.794
		l-44.363,44.363c-5.233,5.233-5.233,13.716,0,18.949c2.608,2.608,6.037,3.929,9.466,3.929s6.858-1.304,9.466-3.929L321.068,88.929
		c5.233-5.233,5.233-13.716,0-18.949L321.104,69.962z M173.226,155.331c11.787,0,21.789,7.608,25.379,18.199l-33.969,33.969
		c-10.573-3.59-18.199-13.591-18.199-25.379C146.437,167.333,158.438,155.331,173.226,155.331z M87.875,208.91
		c10.68-16.895,24.914-31.236,41.702-41.934c1.089-0.697,2.197-1.375,3.304-2.036c-2.786,7.626-4.304,15.859-4.304,24.45
		c0,15.324,4.822,29.504,13.038,41.131l-17.002,17.002C109.985,237.235,97.484,224.108,87.875,208.91z"/>
	<path fill="#00B3C3" d="M271.454,189.371c0-7.572-1.179-14.877-3.375-21.735l-89.798,89.798c6.858,2.197,14.163,3.375,21.735,3.375
		C239.468,260.81,271.454,228.823,271.454,189.371z"/>
	<path fill="#00B3C3" d="M288.76,146.955l-19.36,19.36c0.357,0.214,0.714,0.429,1.054,0.661
		c16.788,10.716,31.022,25.057,41.702,41.934c-10.68,16.895-24.914,31.236-41.702,41.934
		c-21.092,13.448-45.453,20.574-70.438,20.574c-10.787,0-21.467-1.322-31.808-3.911l-21.449,21.449
		c16.663,5.983,34.594,9.251,53.257,9.251c62.312,0,116.338-36.291,142.877-89.298C330.337,183.817,311.602,162.475,288.76,146.955z
		"/>
</g>
</svg>
